<svg xmlns="http://www.w3.org/2000/svg" viewBox="0 0 49.38 49.38"><defs><style>.cls-1{fill:#2932ff;}.cls-2{fill:none;}</style></defs><g id="Layer_2" data-name="Layer 2"><g id="Layer_1-2" data-name="Layer 1"><polygon class="cls-1" points="12.76 17.8 12.76 31.58 6.76 31.58 6.76 21.27 12.76 17.8"/><polygon class="cls-1" points="12.76 31.58 24.69 38.47 21.69 43.66 12.76 38.51 12.76 31.58"/><polygon class="cls-1" points="24.69 38.47 36.62 31.58 39.62 36.77 30.69 41.93 24.69 38.47"/><polygon class="cls-1" points="36.62 31.58 36.62 17.8 42.62 17.8 42.62 28.11 36.62 31.58"/><polygon class="cls-1" points="36.62 17.8 24.69 10.91 27.69 5.71 36.62 10.87 36.62 17.8"/><polygon class="cls-1" points="24.69 10.91 12.76 17.8 9.76 12.6 18.68 7.45 24.69 10.91"/><rect class="cls-2" width="49.38" height="49.38"/></g></g></svg>