<svg xmlns="http://www.w3.org/2000/svg" viewBox="0 0 104.04 26.54"><defs><style>.cls-1{fill:#2932ff;}.cls-2{fill:#fff;}</style></defs><g id="Layer_2" data-name="Layer 2"><g id="Layer_1-2" data-name="Layer 1"><polygon class="cls-1" points="4.2 8.45 4.2 18.09 0 18.09 0 10.88 4.2 8.45"/><polygon class="cls-1" points="4.2 18.09 12.54 22.91 10.44 26.54 4.2 22.94 4.2 18.09"/><polygon class="cls-1" points="12.54 22.91 20.89 18.09 22.99 21.73 16.74 25.33 12.54 22.91"/><polygon class="cls-1" points="20.89 18.09 20.89 8.45 25.09 8.45 25.09 15.66 20.89 18.09"/><polygon class="cls-1" points="20.89 8.45 12.54 3.64 14.64 0 20.89 3.6 20.89 8.45"/><polygon class="cls-1" points="12.54 3.64 4.2 8.45 2.1 4.82 8.34 1.21 12.54 3.64"/><path class="cls-2" d="M44,1.36v8.7c-.7-1.16-2.74-2.36-5.74-2.36-4,0-7.47,3.06-7.47,8.48v.53c0,5.41,3.5,8.48,7.47,8.48A8.77,8.77,0,0,0,42,24.43a4.86,4.86,0,0,0,2.07-1.71v2h4.13V1.36Zm.07,15.25c0,3.2-2,4.91-4.54,4.91S35,19.81,35,16.61v-.33c0-3.21,1.94-4.92,4.54-4.92s4.54,1.71,4.54,4.92Z"/><path class="cls-2" d="M58.23,7.7c-4.93,0-8.68,3.13-8.68,8.48v.53c0,5.34,3.75,8.48,8.68,8.48s8.67-3.14,8.67-8.48v-.53C66.9,10.83,63.17,7.7,58.23,7.7Zm4.47,8.91c0,3.1-1.9,4.84-4.47,4.84s-4.47-1.74-4.47-4.84v-.33c0-3.1,1.87-4.85,4.47-4.85s4.47,1.75,4.47,4.85Z"/><path class="cls-2" d="M80.1,18.69a3.74,3.74,0,0,1-3.95,2.76c-2.53,0-4.47-1.71-4.47-4.84v-.33c0-3.14,1.94-4.85,4.47-4.85a3.67,3.67,0,0,1,3.76,2.41l4-1c-1.07-3-3.71-5.1-7.87-5.1-4.8,0-8.57,3.1-8.57,8.51v.46c0,5.41,3.77,8.52,8.57,8.52,4.35,0,7-2.34,8-5.47Z"/><path class="cls-2" d="M92.47,14.53l-.94-.15c-1.52-.28-2.46-.71-2.46-1.78S89.94,11,91.53,11a2.8,2.8,0,0,1,3.12,2.33l3.9-1.2c-.77-2.67-3.3-4.47-7-4.47C87.61,7.7,85,9.53,85,12.8s2.87,4.58,6.34,5.21l.93.17c2,.36,2.81.83,2.81,1.87s-.94,1.8-2.88,1.8-3.5-.74-3.93-3.07l-3.87,1c.57,3.48,3.47,5.42,7.8,5.42s7-2,7-5.45S96.21,15.2,92.47,14.53Z"/><rect class="cls-2" x="100.17" y="21.31" width="3.87" height="3.87"/></g></g></svg>